<?xml version="1.0" encoding="UTF-8"?>
<svg id="Capa_2" data-name="Capa 2" xmlns="http://www.w3.org/2000/svg" viewBox="0 0 400 400">
  <defs>
    <style>
      .cls-1 {
        fill: #ff4903;
      }

      .cls-1, .cls-2 {
        stroke-width: 0px;
      }

      .cls-2 {
        fill: none;
      }
    </style>
  </defs>
  <g id="Capa_1-2" data-name="Capa 1">
    <g>
      <path class="cls-1" d="M115.65,94.65c15.48,0,32.07-16.33,45.48-29.55,4.9-4.83,9.13-9,12.59-11.65l1.04-.81c7.33-5.65,11.82-9.1,23.58-6.87l2.82.52-.39-2.84c-.5-3.6-1.11-6.71-3.48-8.28-2.29-1.53-5.47-1.1-9.55-.02-6.19,1.66-18.89,9.62-23.75,13.4-2.42,1.88-4.42,4.22-6.74,6.93-4.26,4.98-10.1,11.78-22.58,20.39-1.22.85-3.32,2.04-5.74,3.41-8.54,4.84-15.19,8.83-16.72,12.42l-1.13,2.64,2.87.23c.57.05,1.13.06,1.7.06Z"/>
      <path class="cls-1" d="M242.9,89.76l.64.21.64-.2c5.28-1.71,6.71-4.49,8.09-7.19,1.09-2.12,2.21-4.31,5.73-6.56,3.07-1.96,6.71-3.95,10.24-5.86,2.66-1.45,5.18-2.83,7.2-4.05l1.88-1.14-4.08-5.65c-5.4-7.04-3.54-17.12-1.74-26.85,1.96-10.65,4-21.67-4.9-27.21-3.61-2.25-16.99-6.72-21.61-2.58l-1.03.93.47,1.31c.27.78.4,1.28.48,1.62.41,1.68,1.12,2.14,2.58,2.53.61.16,1.64.44,3.48,1.18l1.79.7c7.98,3.13,11.62,4.56,11.85,14.05.14,5.95-.44,10.18-1,14.26-.83,6.08-1.62,11.84-.05,22.16-6.1,3.13-9.92,8.79-13.03,13.4-2.37,3.52-4.44,6.59-6.28,6.6-2.08-1.4-2.28-2.06-2.63-3.21-.41-1.32-.97-3.13-3.53-5.8l-1.85-1.92-1.41,2.26c-1.53,2.47-1.76,5.51-.65,8.55,1.42,3.88,4.84,7.2,8.71,8.46Z"/>
      <path class="cls-1" d="M145.2,374.04c-1.22.5-2.49,1.02-4.08,1.27-4.76.75-5.52-.13-7.25-2.02-.35-.38-.71-.78-1.12-1.19l-2.59-2.59-.88,3.56c-1.54,6.26,2.38,9.92,5.27,12.61l.57.54.79.02h.26c6.44,0,16.77-4.55,19.47-9.83l1.07-2.08-2.2-.8c-4.24-1.57-6.8-.51-9.32.52Z"/>
      <path class="cls-1" d="M270.07,119.32c-.19.74-.49,1.62-.81,2.55-1.22,3.62-2.61,7.72-1.13,10.67l.34.67.69.3c.89.38,1.74.57,2.53.57s1.49-.18,2.15-.52c2.99-1.57,3.88-6.15,5.1-12.49,1.07-5.52,2.41-12.39,5.45-18.86.74-1.58,1.57-2.96,2.37-4.3,1.3-2.17,2.64-4.42,3.49-7.23l.92-3.06-3.17.41c-10.5,1.37-13.76,14.58-16.65,26.23-.43,1.72-.85,3.42-1.28,5.06Z"/>
      <path class="cls-1" d="M256.93,388.8c-1.93-1.83-3.61-3.4-5.4-6.63-6.61-11.86-13.14-38.32-12.95-52.44.15-11.04,2.03-22.69,3.84-33.96,2.53-15.62,5.14-31.77,3.23-46.81-4.56-36-13.98-56-30.9-82.42-5.2-8.13-10.87-22.19-15.01-32.46-3.31-8.23-4.83-11.92-5.93-13.16l-1.95-2.19-1.41,2.57c-4.9,8.92,7.02,33.45,20.63,58.62,1.24,2.29,2.24,4.14,2.85,5.35,23.72,46.69,21.56,85.47,19.64,119.68-1.33,23.98-2.6,46.62,5.35,68.37,1.87,5.11,8.94,22.06,21.54,25.34l5.11,1.33-2.86-4.45c-2.08-3.23-4.05-5.1-5.81-6.75Z"/>
      <path class="cls-1" d="M315.94,92.26l-1.31-4.02c-.5-1.58-.94-3.11-1.36-4.57-1.78-6.18-3.32-11.51-7.61-14.9l-3.44-2.71.09,4.38c.18,8.76,2.37,15.48,4.3,21.4,3.7,11.35,6.14,18.84-8.19,32.66-9.1,8.77-30.21,19.47-47.11,21.41-17.93,2.04-23.67-14.1-29.67-31.23-.65-1.84-1.29-3.68-1.95-5.51-9.56-26.27-18.95-26.59-43.07-20.43l5.18-13.68-5.68,4.24c-3.89,2.9-7.37,8.09-10.73,13.11-1.33,1.99-2.62,3.92-3.86,5.57-1.78,2.37-3.84,4.05-6.03,5.82-3.69,2.99-7.5,6.08-9.93,12.57-4.73,12.62-1.36,29.25,4.39,39.16,3.61,6.21,8.17,10.05,12.84,10.81l3.38.54-1.08-3.24c-1.49-4.44-3.28-6.53-5.01-8.54-1.62-1.89-3.16-3.68-4.71-7.7-7.13-18.5,2.14-41,20.26-49.14,23.71-10.69,33.84,11.76,42.78,31.56,2.34,5.19,4.56,10.11,6.91,14.11,4.67,7.96,10.73,12.84,18,14.5,15.36,3.46,33.79-7.71,51.32-19.51,29.97-20.18,26.7-30.13,21.28-46.64Z"/>
      <path class="cls-1" d="M294.38,365.37c-2.64-5.44-5.94-12.2-8.92-34.29-3.4-25.13-7.61-76.78-6.74-103.85.26-8.06,2.1-25.02,5.18-47.74q.19-1.47.18-1.7l-.37-5.23-3.3,4.08c-11.61,14.36-17.9,130.23-2.45,177.4,4.37,13.36,10.26,21.1,17.49,23.01l3.42.9-.9-3.43c-1.03-3.88-2.27-6.44-3.59-9.15Z"/>
      <path class="cls-1" d="M231.6,309.04c-3.4-6.92-12.41-7.63-21.95-8.38-7.92-.63-16.1-1.28-21.96-5.24-10.82-7.33-19.68-16.49-28.26-25.35-15.41-15.94-29.97-30.99-53.79-33.86-5.99-.7-9.62-.74-12.55-.23.95-1.47,1.74-2.71,2.42-3.79,3.67-5.8,3.88-6.15,11.28-11.46,7.89-5.68,19.49-9.77,30.7-13.71,11.57-4.08,23.54-8.3,31.41-14.32,26.14-20.02,14.48-43.73,7.52-57.9-1.65-3.35-3.07-6.24-3.59-8.28-1.83-7.2-.51-10.81,1.17-15.38.83-2.29,1.78-4.88,2.32-8.09l.45-2.64-2.67.24c-3.44.32-6.19,2.01-7.94,4.9-6.38,10.56,1.41,35.15,4.94,43.74,5.61,13.59,5.52,22.7-10.21,37.73-3.89,3.71-14.67,7.79-26.09,12.12-18.88,7.16-40.3,15.27-45.28,26.61-1.43,3.24-1.47,6.58-.14,9.93l.48,1.2c-1.65.62-3.25,1.45-5.21,2.49-1.08.57-2.29,1.2-3.68,1.88l-1.15,1.02v3.23l1.95.12c4.25.26,6.87-.5,9.42-1.22,3.4-.95,6.57-1.86,14.09-.15,19.54,4.51,29.89,17.12,40.85,30.48,13.71,16.69,27.87,33.95,60.79,33.95.52,0,1.09,0,1.6,0,4.38,0,7.24.82,10.26,1.68,2.88.83,5.85,1.68,9.97,1.68.35,0,.7,0,1.07-.02l3.19-.11-1.41-2.87Z"/>
      <path class="cls-1" d="M137.94,348.09c-2.04,5.27-3.95,10.26-5.06,15.65l-.88,4.3,3.88-2.05c5.57-2.94,6.91-5.73,8.76-9.6.58-1.21,1.24-2.58,2.12-4.16,6.45-11.56,6.24-21.36,5.94-34.94-.15-7.35-.33-15.69.41-26.31l.48-6.74-4.17,5.32c-7.08,9.05-6.4,16.62-5.69,24.64.44,5,.9,10.17-.29,16.44-1.2,6.24-3.38,11.94-5.51,17.45Z"/>
    </g>
    <rect class="cls-2" width="400" height="400"/>
  </g>
</svg>