<?xml version="1.0" encoding="UTF-8"?>
<svg xmlns="http://www.w3.org/2000/svg" viewBox="0 0 80 80">
  <defs>
    <style>
      .cls-1 {
        isolation: isolate;
      }

      .cls-2 {
        fill: #db7f0c;
      }

      .cls-2, .cls-3, .cls-4, .cls-5, .cls-6, .cls-7 {
        stroke-width: 0px;
      }

      .cls-3 {
        fill: #0eb0b5;
      }

      .cls-4 {
        fill: #801915;
      }

      .cls-5 {
        fill: #ff8e06;
      }

      .cls-6 {
        fill: #fff;
      }

      .cls-7 {
        fill: #10807f;
      }

      .cls-8 {
        mix-blend-mode: multiply;
      }
    </style>
  </defs>
  <g class="cls-1">
    <g id="Capa_2" data-name="Capa 2">
      <g id="Capa_1-2" data-name="Capa 1">
        <circle class="cls-5" cx="40" cy="40" r="40"/>
        <g>
          <polygon class="cls-2" points="24.65 64.93 61.22 64.93 58.16 61.4 21.56 61.4 24.65 64.93"/>
          <polyline class="cls-7" points="58.16 61.4 58.16 52.05 61.22 55.59 61.22 64.93"/>
          <rect class="cls-3" x="22.53" y="53.04" width="34.65" height="7.37"/>
          <path class="cls-6" d="M21.56,61.4v-9.34h36.6v9.34H21.56ZM22.54,53.04v7.37h34.64v-7.37H22.54Z"/>
          <path class="cls-2" d="M33.98,22.79c.11-.12.23-.24.34-.36,2.76-2.76,6.74-3.56,10.22-2.41-.09-.07-.17-.13-.26-.19-.02-.02-.05-.03-.07-.05-.08-.06-.17-.12-.26-.17-.03-.02-.06-.04-.08-.05-.09-.06-.17-.11-.26-.16-.02-.01-.04-.02-.06-.04-.28-.16-.57-.31-.87-.45-.04-.02-.08-.04-.13-.06-.08-.03-.16-.07-.23-.1-.06-.02-.11-.04-.17-.07-.07-.03-.15-.06-.22-.08-.06-.02-.13-.04-.19-.06-.07-.02-.14-.05-.21-.07-.08-.02-.16-.05-.24-.07-.06-.02-.12-.04-.19-.05-.13-.03-.26-.06-.39-.09-.05-.01-.11-.02-.16-.03-.09-.02-.18-.03-.27-.05-.06,0-.12-.02-.18-.03-.09-.01-.18-.02-.28-.03-.06,0-.11-.01-.17-.02-.1,0-.2-.02-.3-.02-.05,0-.1,0-.15,0-.15,0-.3-.01-.45-.01-.18,0-.33,0-.47.01-5.12.25-9.14,4.45-9.14,9.55,0,.1,0,.2,0,.3,0,.19.02.37.03.55,0,.06.01.11.02.17.01.13.03.25.05.38,0,.06.02.13.03.19.02.13.04.25.07.37.01.05.02.11.03.16.04.17.08.33.12.5,0,0,0,.01,0,.02.05.17.1.34.16.51.02.05.03.09.05.14.04.12.09.24.14.36.02.05.04.1.07.16.05.12.1.23.16.35.02.04.04.09.06.13.08.15.15.31.24.45,0,0,0,0,0,0,.09.15.18.31.28.46.02.03.04.06.06.09.08.12.15.23.23.34.03.04.06.08.09.12.08.11.16.21.25.32.03.03.05.07.08.1.23.27.47.53.72.77.02.02.04.04.06.06.11.1.22.2.33.3.03.03.06.06.1.08.11.09.22.17.33.26.03.02.06.05.09.07.14.1.28.2.43.3,0,0,0,0,0,0-2.91-3.8-2.73-9.22.55-12.85"/>
          <path class="cls-2" d="M53.09,18.1s-.08-.08-.12-.12c.11.16.22.33.32.49.01.02.03.05.04.07.21.33.4.67.58,1.01.01.03.03.05.04.08.18.34.35.69.51,1.05.01.03.03.06.04.09.08.18.15.35.22.53.07.18.14.36.2.55.01.03.02.07.04.1.06.18.12.36.18.54,0,0,0,0,0,0,.06.18.11.37.16.56.01.04.02.08.03.12.05.18.1.37.14.55,0,0,0,0,0,0,.04.19.08.38.12.57,0,.04.02.09.02.13.03.19.07.37.1.56,0,0,0,0,0,.01.03.19.05.38.08.58,0,.05.01.09.02.14.02.19.04.38.06.57,0,0,0,0,0,0,.01.19.03.39.03.59,0,.05,0,.1,0,.15,0,.2.01.39.01.59,0,9.48-7.71,17.19-17.18,17.19-.25,0-.5,0-.75-.02-.07,0-.13,0-.2,0-.23-.01-.47-.03-.7-.05-.03,0-.06,0-.1,0-.22-.02-.43-.05-.65-.08-.08-.01-.17-.02-.25-.04-.18-.03-.36-.06-.54-.09-.11-.02-.23-.04-.34-.07-.15-.03-.3-.06-.45-.1-.11-.03-.23-.05-.34-.08-.11-.03-.22-.06-.34-.09-.21-.06-.42-.12-.63-.19-.08-.02-.15-.05-.23-.08-.14-.05-.29-.1-.43-.15-.05-.02-.09-.03-.14-.05-.29-.11-.58-.23-.87-.36-.02,0-.04-.02-.06-.03-.5-.22-.98-.47-1.46-.74,6.57,5.72,16.56,5.46,22.82-.79,6.53-6.53,6.53-17.14,0-23.67"/>
          <path class="cls-6" d="M38.75,44.8c-4.53,0-8.8-1.75-12.04-4.93-3.23-3.18-5.06-7.41-5.14-11.93,0-.11,0-.22,0-.33,0-4.49,1.73-8.75,4.87-11.97,3.13-3.22,7.33-5.07,11.8-5.2.17,0,.34,0,.51,0,9.47,0,17.18,7.71,17.18,17.18s-7.71,17.18-17.18,17.18M38.75,11.34c-.16,0-.32,0-.48,0-8.86.26-15.79,7.4-15.79,16.26,0,.1,0,.2,0,.31.17,8.81,7.47,15.97,16.27,15.97s16.27-7.3,16.27-16.28-7.3-16.27-16.27-16.27M38.75,38.14c-5.72,0-10.34-4.47-10.51-10.19,0-.11,0-.22,0-.33,0-5.59,4.39-10.19,10-10.46.15,0,.32-.01.52-.01,5.77,0,10.47,4.7,10.47,10.47s-4.7,10.52-10.47,10.52M38.75,18.05c-.18,0-.33,0-.47.01-5.12.25-9.14,4.45-9.14,9.55,0,.1,0,.2,0,.3.16,5.22,4.38,9.31,9.6,9.31s9.56-4.31,9.56-9.61-4.29-9.56-9.56-9.56"/>
          <path class="cls-3" d="M38.75,11.34c-.16,0-.32,0-.48,0-8.86.26-15.79,7.4-15.79,16.26,0,.1,0,.2,0,.31.17,8.81,7.47,15.97,16.27,15.97s16.27-7.3,16.27-16.28-7.3-16.27-16.27-16.27M38.75,38.14c-5.72,0-10.34-4.47-10.51-10.19,0-.11,0-.22,0-.33,0-5.59,4.39-10.19,10-10.46.15,0,.32-.01.52-.01,5.77,0,10.47,4.7,10.47,10.47s-4.7,10.52-10.47,10.52"/>
          <g class="cls-8">
            <path class="cls-4" d="M57.99,61.4H21.56v-5.34h-2.78v6.21l5.08,6.21h34.13v-3.54H24.65l-3.09-3.53h36.43ZM43.55,19.35c-.28-.16-.57-.31-.87-.45.3.14.59.29.87.45M42.31,18.74c.08.03.16.06.23.1-.08-.03-.16-.07-.23-.1M41.74,18.53c-.07-.02-.14-.05-.21-.07.07.02.14.04.21.07M41.93,18.6c.07.03.15.05.22.08-.07-.03-.15-.06-.22-.08M44.28,19.82c.09.06.18.13.26.19-3.48-1.14-7.46-.35-10.22,2.41-.12.12-.23.24-.34.36-1.5,1.65-2.35,3.68-2.56,5.76,1.25-3.24,4.37-5.54,8.03-5.54,4.27,0,7.81,3.13,8.49,7.23.24-.84.37-1.72.37-2.63,0-3.21-1.59-6.06-4.03-7.79M44.21,19.77c-.08-.06-.17-.12-.26-.17.09.06.17.11.26.17M43.87,19.55c-.09-.05-.17-.11-.26-.16.09.05.18.11.26.16M39.82,18.11c-.06,0-.11-.01-.17-.02.06,0,.11.01.17.02M39.35,18.07s-.1,0-.15,0c.05,0,.1,0,.15,0M53.09,41.78c-6.25,6.25-16.25,6.51-22.82.79h0c-.44-.25-.87-.52-1.29-.81-.06-.04-.12-.08-.17-.12-.11-.08-.22-.16-.33-.24-.12-.09-.23-.18-.34-.27-.1-.08-.19-.15-.29-.23-.15-.12-.29-.24-.43-.37-.06-.05-.11-.1-.17-.15-.18-.16-.36-.33-.54-.51-.19-.19-.38-.38-.56-.58-.06-.07-.12-.14-.18-.21-.12-.13-.23-.26-.34-.39-.07-.09-.14-.17-.21-.26-.1-.12-.19-.23-.28-.35-.08-.1-.15-.2-.22-.3-.08-.11-.16-.22-.24-.33-.08-.11-.15-.22-.22-.33-.07-.1-.14-.21-.2-.31-.08-.12-.15-.24-.22-.36-.06-.1-.11-.19-.17-.29-.08-.13-.15-.27-.23-.4-.04-.08-.08-.16-.12-.24-.08-.15-.16-.31-.24-.47-.01-.03-.03-.06-.04-.09-.41-.85-.74-1.74-1-2.65,0-.01,0-.02,0-.03-.06-.22-.12-.44-.17-.66,0-.02-.01-.05-.02-.07-.05-.22-.1-.44-.14-.66,0-.03,0-.05-.01-.08-.04-.22-.08-.45-.11-.68,0-.02,0-.04,0-.06-.03-.24-.06-.47-.09-.71-.1.76-.15,1.54-.15,2.34,0,9.99,8.04,18.09,17.95,18.09,8.53,0,15.68-6,17.5-14.05-.81,2.2-2.09,4.27-3.86,6.03M41.28,18.4c-.06-.02-.12-.03-.19-.05.06.02.12.03.19.05M40.1,18.15c.06,0,.12.02.18.03-.06,0-.12-.02-.18-.03M40.54,18.22c.05.01.11.02.16.03-.05-.01-.11-.02-.16-.03"/>
          </g>
        </g>
      </g>
    </g>
  </g>
</svg>